<svg xmlns="http://www.w3.org/2000/svg" width="200" height="200" viewBox="0 0 200 200">
  <rect width="200" height="200" rx="36" fill="#fdf8f0"/>
  <rect x="64" y="28" width="72" height="96" rx="8" fill="#1e1208" stroke="#c15c0a" stroke-width="3"/>
  <rect x="72" y="36" width="56" height="80" rx="4" fill="none" stroke="#c15c0a" stroke-width="1" opacity="0.55"/>
  <polygon points="100,54 106,68 120,68 110,78 114,94 100,84 86,94 90,78 80,68 94,68" fill="#c15c0a"/>
  <ellipse cx="100" cy="138" rx="22" ry="10" fill="#c15c0a" opacity="0.25"/>
  <path d="M82,124 Q92,134 100,126 Q108,138 118,124 Q112,148 104,156 Q100,164 96,156 Q88,148 82,124Z" fill="#c15c0a"/>
  <path d="M90,128 Q98,138 100,130 Q102,142 110,128 Q106,152 102,158 Q100,162 98,158 Q94,152 90,128Z" fill="#e8a04b"/>
  <path d="M96,132 Q100,140 104,132 Q102,154 100,160 Q98,154 96,132Z" fill="#fef9c3"/>
</svg>
